<svg xmlns="http://www.w3.org/2000/svg" viewBox="0 0 64 64"><defs><linearGradient id="a" x1="32.005" x2="32.005" y1="1.385" y2="63.232" gradientUnits="userSpaceOnUse"><stop offset="0" stop-color="#e8f5ff"/><stop offset="1" stop-color="#b4dfff"/></linearGradient><linearGradient id="b" x1="32" x2="32" y1="22.957" y2="40.638" gradientUnits="userSpaceOnUse"><stop offset="0" stop-color="#466aff"/><stop offset="1" stop-color="#06b8ff"/></linearGradient></defs><path fill="url(#a)" d="M53.8741,1.7553a320.3071,320.3071,0,0,0-43.7387,0,9.0533,9.0533,0,0,0-8.3775,8.3775,320.1789,320.1789,0,0,0,0,43.7387,9.0535,9.0535,0,0,0,8.378,8.378,319.7876,319.7876,0,0,0,43.7382,0,9.0535,9.0535,0,0,0,8.378-8.378,320.1731,320.1731,0,0,0,0-43.7383A9.0535,9.0535,0,0,0,53.8741,1.7553Z" data-name="Layer 2"/><path fill="url(#b)" d="M41,23H23a9,9,0,0,0,0,18H41a9,9,0,0,0,0-18Zm0,16a7,7,0,1,1,7-7A7.0078,7.0078,0,0,1,41,39Z" data-name="Layer 1"/></svg>